<svg width="128" height="128" viewBox="0 0 128 128" fill="none" xmlns="http://www.w3.org/2000/svg">
<g clip-path="url(#clip0_1_2)">
<rect width="128" height="128" rx="12" fill="white"/>
<path d="M79.85 13.7V34.25H36.95V56.45H69.05V76.4H36.95V119H11.3V13.7H79.85Z" fill="black"/>
<ellipse cx="98" cy="113.5" rx="40" ry="40.5" fill="black"/>
<path d="M69.44 98.52C68.54 98.52 67.8 98.26 67.22 97.74C66.66 97.2 66.38 96.54 66.38 95.76C66.38 94.96 66.66 94.3 67.22 93.78C67.8 93.24 68.54 92.97 69.44 92.97C70.32 92.97 71.04 93.24 71.6 93.78C72.18 94.3 72.47 94.96 72.47 95.76C72.47 96.54 72.18 97.2 71.6 97.74C71.04 98.26 70.32 98.52 69.44 98.52ZM71.99 100.26V117H66.86V100.26H71.99ZM92.2377 100.26V117H87.1077V114.72C86.5877 115.46 85.8777 116.06 84.9777 116.52C84.0977 116.96 83.1177 117.18 82.0377 117.18C80.7577 117.18 79.6277 116.9 78.6477 116.34C77.6677 115.76 76.9077 114.93 76.3677 113.85C75.8277 112.77 75.5577 111.5 75.5577 110.04V100.26H80.6577V109.35C80.6577 110.47 80.9477 111.34 81.5277 111.96C82.1077 112.58 82.8877 112.89 83.8677 112.89C84.8677 112.89 85.6577 112.58 86.2377 111.96C86.8177 111.34 87.1077 110.47 87.1077 109.35V100.26H92.2377ZM117.283 100.08C119.363 100.08 121.013 100.71 122.233 101.97C123.473 103.23 124.093 104.98 124.093 107.22V117H118.993V107.91C118.993 106.83 118.703 106 118.123 105.42C117.563 104.82 116.783 104.52 115.783 104.52C114.783 104.52 113.993 104.82 113.413 105.42C112.853 106 112.573 106.83 112.573 107.91V117H107.473V107.91C107.473 106.83 107.183 106 106.603 105.42C106.043 104.82 105.263 104.52 104.263 104.52C103.263 104.52 102.473 104.82 101.893 105.42C101.333 106 101.053 106.83 101.053 107.91V117H95.9225V100.26H101.053V102.36C101.573 101.66 102.253 101.11 103.093 100.71C103.933 100.29 104.883 100.08 105.943 100.08C107.203 100.08 108.323 100.35 109.303 100.89C110.303 101.43 111.083 102.2 111.643 103.2C112.223 102.28 113.013 101.53 114.013 100.95C115.013 100.37 116.103 100.08 117.283 100.08Z" fill="white"/>
</g>
<rect x="1.5" y="1.5" width="125" height="125" rx="10.5" stroke="black" stroke-width="3"/>
<defs>
<clipPath id="clip0_1_2">
<rect width="128" height="128" rx="12" fill="white"/>
</clipPath>
</defs>
</svg>
